<?xml version="1.0" standalone="no"?>
<!DOCTYPE svg PUBLIC "-//W3C//DTD SVG 20010904//EN"
 "http://www.w3.org/TR/2001/REC-SVG-20010904/DTD/svg10.dtd">
<svg version="1.0" xmlns="http://www.w3.org/2000/svg"
 width="280.000000pt" height="280.000000pt" viewBox="0 0 280.000000 280.000000"
 preserveAspectRatio="xMidYMid meet">
<metadata>
Created by potrace 1.11, written by Peter Selinger 2001-2013
</metadata>
<g transform="translate(0.000000,280.000000) scale(0.100000,-0.100000)"
fill="#000000" stroke="none">
<path d="M1466 2122 c-4 -3 -28 -7 -54 -8 -26 -1 -65 -5 -87 -9 -22 -4 -53 -8
-70 -11 -16 -2 -41 -5 -55 -7 -14 -2 -59 -14 -100 -27 -41 -12 -79 -23 -85
-24 -22 -4 -92 -30 -135 -48 -24 -11 -49 -21 -55 -22 -5 -1 -34 -15 -64 -31
-30 -17 -57 -30 -60 -30 -3 0 -24 -11 -46 -24 -22 -14 -43 -24 -47 -23 -5 1
-8 -1 -8 -6 0 -4 -17 -16 -37 -27 -20 -11 -51 -32 -67 -47 -17 -16 -34 -28
-39 -28 -5 0 -14 -6 -21 -12 -7 -7 -33 -29 -56 -48 -72 -58 -192 -182 -243
-249 -36 -48 -47 -71 -44 -91 6 -38 50 -126 100 -203 53 -81 217 -244 295
-293 31 -20 59 -39 62 -43 8 -10 114 -61 126 -61 7 0 17 -7 24 -15 7 -9 15
-13 18 -11 2 3 13 1 24 -5 11 -6 27 -12 36 -14 9 -2 42 -13 72 -25 30 -12 55
-21 55 -20 0 1 11 -1 25 -4 58 -13 169 -28 213 -29 15 0 27 -3 27 -6 0 -11
268 0 330 14 14 3 39 7 57 9 50 7 147 28 158 34 6 4 15 7 20 8 17 3 119 35
145 46 14 6 39 16 55 23 128 53 323 163 406 229 14 12 43 35 65 51 21 17 46
37 54 45 9 8 39 36 68 63 28 26 50 47 48 47 -2 0 14 18 35 41 95 103 109 150
69 230 -43 85 -160 255 -160 233 0 -3 -10 6 -22 21 -29 38 -86 94 -96 96 -4 0
-26 17 -48 38 -23 21 -55 43 -72 50 -16 7 -38 20 -48 30 -16 14 -107 63 -124
66 -3 0 -16 7 -30 15 -14 7 -25 12 -25 11 0 -3 -15 2 -90 28 -33 11 -71 23
-85 25 -14 3 -43 10 -64 15 -22 5 -44 8 -48 5 -4 -3 -8 -2 -8 3 0 4 -10 8 -22
9 -86 4 -201 15 -209 20 -5 3 -9 1 -9 -5 0 -7 -8 -7 -24 -1 -13 5 -27 6 -30 2z
m232 -186 c13 -3 33 -8 45 -12 12 -4 33 -8 47 -10 29 -4 48 -8 75 -19 11 -4
54 -20 96 -36 64 -24 192 -90 209 -109 3 -3 23 -17 45 -31 67 -45 180 -161
229 -236 80 -125 84 -107 -54 -244 -67 -65 -127 -119 -135 -119 -8 0 -15 -4
-15 -10 0 -5 -7 -10 -15 -10 -8 0 -15 -4 -15 -9 0 -5 -25 -24 -55 -41 -30 -17
-62 -38 -70 -46 -8 -8 -17 -14 -20 -14 -3 1 -43 -17 -88 -39 -80 -39 -254
-106 -299 -115 -13 -2 -54 -12 -93 -21 -38 -9 -92 -19 -120 -22 -68 -6 -314
-5 -345 2 -14 4 -38 8 -55 11 -16 3 -44 9 -61 15 -17 5 -40 11 -50 13 -102 21
-384 165 -384 197 0 5 -7 9 -15 9 -9 0 -18 7 -21 15 -4 8 -10 15 -14 15 -14 0
-104 93 -139 145 -19 28 -37 52 -41 55 -3 3 -12 19 -20 35 -8 17 -19 33 -24
36 -16 12 5 45 72 115 71 75 175 162 243 206 14 9 34 25 44 35 10 10 20 17 22
15 6 -5 73 30 73 39 0 5 4 9 9 9 5 0 45 16 88 36 173 80 325 124 483 141 30 3
57 8 60 10 6 6 275 -4 308 -11z"/>
<path d="M1434 1862 c-6 -4 -17 -19 -25 -34 -36 -69 -72 -133 -78 -138 -3 -3
-16 -25 -29 -50 -13 -25 -39 -70 -57 -100 -18 -30 -44 -75 -57 -99 -12 -24
-28 -46 -35 -48 -7 -3 -25 9 -40 27 -55 66 -44 63 -198 56 -77 -4 -178 -9
-224 -11 -221 -9 -271 -20 -277 -62 -3 -19 31 -52 55 -54 72 -5 425 15 458 26
7 2 21 -7 32 -20 10 -14 24 -25 30 -25 6 0 11 -3 11 -7 0 -5 43 -53 96 -108
l96 -99 19 24 c10 14 19 29 19 33 0 5 14 28 30 53 17 24 27 44 23 44 -4 0 -3
4 2 8 14 10 95 148 95 162 0 6 5 8 10 5 6 -4 10 -12 8 -18 -1 -7 5 -28 14 -47
14 -33 30 -84 33 -105 1 -5 5 -17 8 -25 6 -17 41 -122 42 -130 1 -3 19 -60 40
-127 35 -111 41 -123 62 -123 14 0 23 6 23 15 0 8 4 15 8 15 5 0 18 20 30 44
12 24 29 49 37 56 8 7 15 16 15 21 0 7 98 168 110 179 3 3 11 17 19 33 16 30
-9 27 272 32 126 2 172 16 177 52 2 15 -5 27 -23 39 -21 14 -47 17 -143 15
-64 -2 -179 -4 -255 -5 -88 -1 -141 -6 -149 -14 -6 -6 -24 -33 -39 -58 l-27
-47 -15 34 c-11 28 -24 66 -32 99 0 3 -16 52 -35 110 -19 58 -35 108 -36 113
-1 4 -3 9 -4 12 -1 3 -3 8 -5 13 -1 4 -5 16 -9 27 -10 27 -20 56 -46 143 -12
39 -22 72 -23 72 -1 0 -7 -4 -13 -8z"/>
</g>
</svg>
