<?xml version="1.0" encoding="UTF-8" standalone="no"?>
<svg
   xmlns:dc="http://purl.org/dc/elements/1.1/"
   xmlns:cc="http://creativecommons.org/ns#"
   xmlns:rdf="http://www.w3.org/1999/02/22-rdf-syntax-ns#"
   xmlns:svg="http://www.w3.org/2000/svg"
   xmlns="http://www.w3.org/2000/svg"
   xmlns:sodipodi="http://sodipodi.sourceforge.net/DTD/sodipodi-0.dtd"
   xmlns:inkscape="http://www.inkscape.org/namespaces/inkscape"
   inkscape:version="1.0 (4035a4fb49, 2020-05-01)"
   sodipodi:docname="lungs_area.svg"
   id="svg10"
   version="1.1"
   viewBox="0 0 193.04655 210.58475">
  <metadata
     id="metadata16">
    <rdf:RDF>
      <cc:Work
         rdf:about="">
        <dc:format>image/svg+xml</dc:format>
        <dc:type
           rdf:resource="http://purl.org/dc/dcmitype/StillImage" />
        <dc:title></dc:title>
      </cc:Work>
    </rdf:RDF>
  </metadata>
  <defs
     id="defs14" />
  <sodipodi:namedview
     inkscape:current-layer="svg10"
     inkscape:window-maximized="1"
     inkscape:window-y="208"
     inkscape:window-x="1912"
     inkscape:cy="111.75144"
     inkscape:cx="96.523277"
     inkscape:zoom="3.6940429"
     showgrid="false"
     id="namedview12"
     inkscape:window-height="966"
     inkscape:window-width="1680"
     inkscape:pageshadow="2"
     inkscape:pageopacity="0"
     guidetolerance="10"
     gridtolerance="10"
     objecttolerance="10"
     borderopacity="1"
     bordercolor="#666666"
     pagecolor="#ffffff" />
  <g
     inkscape:label="Layer 1"
     id="layer1"
     inkscape:groupmode="layer">
    <path
       id="c"
       d="m 64.428055,54.953341 c -1.242894,0.705032 -2.655458,1.283316 -3.789885,2.165649 -1.289495,1.00294 -2.394899,2.394898 -3.51918,3.519179 -1.234151,1.234152 -3.105552,3.04166 -4.602004,3.789886 -0.765849,0.382924 -1.423046,1.430816 -2.165649,1.894943 -0.342205,0.213878 -0.754446,0.306856 -1.082824,0.541412 -1.06136,0.758114 -1.899777,1.988401 -2.977767,2.707061 -0.237425,0.158283 -0.574694,0.112423 -0.812119,0.270706 -1.075278,0.716852 -1.881308,2.049186 -2.977767,2.707061 -0.244685,0.146811 -0.567433,0.123895 -0.812118,0.270706 -1.353531,0.812119 0,0.270706 -0.812119,0.812119 -3.507926,2.338618 -6.357914,5.017023 -9.474714,7.850477 -0.914544,0.831404 -2.681319,2.139907 -3.519179,2.977767 -0.498341,0.498341 -0.855189,1.125896 -1.353531,1.624237 -0.31903,0.31903 -0.793988,0.465515 -1.082824,0.812118 -0.182676,0.219212 -0.123895,0.567434 -0.270706,0.812119 -0.508292,0.847153 -1.315623,1.781218 -1.624237,2.707061 -0.130701,0.392103 -0.07897,0.97005 -0.270706,1.35353 -0.05707,0.11414 -0.239756,0.146905 -0.270706,0.270706 -0.243084,0.972337 0.216825,0.91988 -0.270706,1.894943 -0.463958,0.927916 -1.160279,1.779145 -1.624237,2.707061 -0.425819,0.851639 -1.05813,2.528494 -1.624237,3.519178 -0.508183,0.88932 -1.209831,1.77465 -1.624236,2.70706 -1.535894,3.45576 -2.872296,7.15789 -3.789886,10.82824 -0.394801,1.57921 -0.569478,3.33267 -1.082824,4.87271 -0.191419,0.57426 -0.638182,1.04445 -0.812119,1.62424 -0.738015,2.46005 -1.087729,5.07607 -1.624237,7.57977 -0.369872,1.72607 -0.9695611,3.41556 -1.3535301,5.14342 -1.5312564,6.89065 -3.0888063,13.83358 -3.7898856,20.84437 -0.3417908,3.41791 -1.3099538,7.07269 -0.8121184,10.55754 0.1435494,1.00484 0.2168824,2.27488 0.5414123,3.24847 0.1276121,0.38284 0.4435382,0.69133 0.5414122,1.08282 0.087541,0.35017 -0.044769,0.72467 0,1.08283 0.3053082,2.44247 1.2226674,4.89965 1.6242367,7.30906 0.093822,0.56294 0.4783891,1.05703 0.5414122,1.62424 0.059789,0.5381 -0.059789,1.08614 0,1.62424 0.072545,0.6529 0.4334147,1.24696 0.5414122,1.89494 0.3777046,2.26623 0.8940084,4.57697 1.6242365,6.76765 0.264171,0.79252 0.439786,1.9624 0.812119,2.70706 0.114139,0.22828 0.440874,0.30683 0.541412,0.54142 0.181247,0.42291 0.180471,0.90235 0.270706,1.35353 0.270706,0.63164 0.524136,1.27098 0.812118,1.89494 0.389318,0.84352 0.987568,1.58244 1.353531,2.43636 0.146558,0.34196 0.07929,0.76379 0.270706,1.08282 0.16739,0.27898 0.61691,0.28113 0.812118,0.54141 1.751527,2.33537 4.423956,4.15143 7.309066,4.87271 4.915013,1.22876 12.952315,2.71168 17.866603,2.16565 3.313618,-0.36818 2.694014,-0.64997 4.87271,-1.89494 2.075044,-1.18574 4.294227,-2.26949 6.496947,-3.24848 1.082824,-0.45117 2.165649,-0.90235 3.248473,-1.35353 0.360942,-0.0902 0.734463,-0.14007 1.082825,-0.2707 1.578031,-0.59176 2.866599,-1.70401 4.331298,-2.43636 0.510448,-0.25522 1.123222,-0.26813 1.624236,-0.54141 2.392922,-1.30523 3.996698,-3.65705 6.226241,-5.14342 0.812118,-0.54141 1.583138,-1.15022 2.436355,-1.62423 0.424781,-0.23599 0.936847,-0.2914 1.35353,-0.54141 3.312268,-1.98736 -0.433339,-0.15687 2.436356,-2.16565 1.35847,-0.95093 2.805715,-1.50152 3.789885,-2.97777 0.269547,-0.40432 0.324097,-0.9189 0.541412,-1.35353 0.463958,-0.92792 1.160279,-1.77915 1.624237,-2.70706 1.004968,-2.00994 2.20482,-5.6741 2.707061,-7.85048 0.512228,-2.21966 0.12903,-1.93545 0.270706,-4.06059 0.152347,-2.2852 0.641807,-4.45858 0.541413,-6.76765 -0.192493,-4.42733 -0.640696,-9.09543 -0.270707,-13.53531 0.355072,-4.26086 1.626277,-8.42452 1.894943,-12.72319 0.17409,-2.78543 -0.198827,-5.60831 0,-8.39189 0.09729,-1.36204 0.45058,-2.6981 0.541412,-4.06059 0.140876,-2.11313 -0.140267,-4.13922 -0.270706,-6.22624 -0.186637,-2.9862 0.26008,-3.5217 0.541413,-7.03836 0.59309,-7.41363 0.104254,-14.638262 -1.353531,-21.927189 -0.675873,-3.379364 0.0081,-0.452096 -0.270706,-3.51918 -0.251338,-2.76472 -0.926137,-6.183571 -2.165649,-8.662596 -1.606728,-3.213456 0.06271,0.555698 -1.894943,-2.707061 -0.25001,-0.416683 -0.291402,-0.936847 -0.541412,-1.35353 -1.322681,-2.204469 -3.482306,-4.017573 -5.143416,-5.955535 -3.091259,-3.606469 1.684409,2.551675 -1.894943,-1.624236 -0.641081,-0.747928 -0.984917,-1.907912 -1.624237,-2.707062 -0.780063,-0.975079 -1.601108,-1.848685 -2.165649,-2.977767 -0.477567,-0.955134 -0.84759,-2.995503 -1.894942,-3.519179 -0.161418,-0.08071 -0.379995,0.08071 -0.541413,0 -1.085238,-0.54262 -0.951596,-0.639834 -2.165649,0.270706 z"
       style="fill:#fefefe;stroke:#000000;stroke-width:1px;stroke-linecap:butt;stroke-linejoin:miter;stroke-opacity:1" />
    <path
       style="fill:#ffffff;stroke:#000000;stroke-width:1px;stroke-linecap:butt;stroke-linejoin:miter;stroke-opacity:1"
       d="m 130.15141,54.226135 c 1.24289,0.705032 2.65545,1.283316 3.78988,2.165649 1.2895,1.00294 2.3949,2.394898 3.51918,3.51918 1.23415,1.234152 3.10555,3.041659 4.60201,3.789885 0.76584,0.382924 1.42304,1.430816 2.16564,1.894943 0.34221,0.213878 0.75445,0.306856 1.08283,0.541412 1.06136,0.758114 1.89978,1.988401 2.97777,2.707061 0.23742,0.158283 0.57469,0.112423 0.81211,0.270706 1.07528,0.716852 1.88131,2.049186 2.97777,2.707061 0.24469,0.146811 0.56743,0.123895 0.81212,0.270706 1.35353,0.812119 0,0.270706 0.81212,0.812119 3.50792,2.338618 6.35791,5.017023 9.47471,7.850477 0.91455,0.831404 2.68132,2.139907 3.51918,2.977767 0.49834,0.498341 0.85519,1.125896 1.35353,1.624237 0.31903,0.31903 0.79399,0.465515 1.08283,0.812118 0.18267,0.219212 0.12389,0.567434 0.2707,0.812119 0.50829,0.847153 1.31563,1.781218 1.62424,2.707061 0.1307,0.392103 0.079,0.97005 0.27071,1.35353 0.0571,0.11414 0.23975,0.146905 0.2707,0.270706 0.24309,0.972337 -0.21682,0.91988 0.27071,1.894943 0.46396,0.927916 1.16028,1.779145 1.62423,2.707061 0.42582,0.851639 1.05813,2.528494 1.62424,3.51918 0.50818,0.889324 1.20983,1.774644 1.62424,2.707054 1.53589,3.45576 2.87229,7.15789 3.78988,10.82824 0.3948,1.57921 0.56948,3.33267 1.08283,4.87271 0.19142,0.57426 0.63818,1.04445 0.81212,1.62424 0.73801,2.46005 1.08773,5.07607 1.62423,7.57977 0.36988,1.72607 0.96956,3.41556 1.35353,5.14342 1.53126,6.89065 3.08881,13.83358 3.78989,20.84437 0.34179,3.41791 1.30995,7.07269 0.81211,10.55754 -0.14355,1.00484 -0.21688,2.27488 -0.54141,3.24847 -0.12761,0.38284 -0.44354,0.69133 -0.54141,1.08282 -0.0875,0.35017 0.0448,0.72467 0,1.08283 -0.30531,2.44247 -1.22267,4.89965 -1.62424,7.30906 -0.0938,0.56294 -0.47839,1.05703 -0.54141,1.62424 -0.0598,0.5381 0.0598,1.08614 0,1.62424 -0.0725,0.6529 -0.43341,1.24696 -0.54141,1.89494 -0.3777,2.26623 -0.89401,4.57697 -1.62423,6.76765 -0.26418,0.79252 -0.43979,1.9624 -0.81212,2.70706 -0.11414,0.22828 -0.44088,0.30683 -0.54142,0.54142 -0.18124,0.42291 -0.18047,0.90235 -0.2707,1.35353 -0.27071,0.63164 -0.52414,1.27098 -0.81212,1.89494 -0.38932,0.84352 -0.98757,1.58244 -1.35353,2.43636 -0.14656,0.34196 -0.0793,0.76379 -0.27071,1.08282 -0.16739,0.27898 -0.61691,0.28113 -0.81211,0.54141 -1.75153,2.33537 -4.42396,4.15143 -7.30907,4.87271 -4.91501,1.22876 -12.95232,2.71168 -17.8666,2.16565 -3.31362,-0.36818 -2.69402,-0.64997 -4.87271,-1.89494 -2.07505,-1.18574 -4.29423,-2.26949 -6.49695,-3.24848 -1.08282,-0.45117 -2.16565,-0.90235 -3.24847,-1.35353 -0.36095,-0.0902 -0.73447,-0.14007 -1.08283,-0.2707 -1.57803,-0.59176 -2.8666,-1.70401 -4.3313,-2.43636 -0.51044,-0.25522 -1.12322,-0.26813 -1.62423,-0.54141 -2.39292,-1.30523 -3.9967,-3.65705 -6.22624,-5.14342 -0.81212,-0.54141 -1.58314,-1.15022 -2.43635,-1.62423 -0.42479,-0.23599 -0.93685,-0.2914 -1.35353,-0.54141 -3.31227,-1.98736 0.43333,-0.15687 -2.43636,-2.16565 -1.35847,-0.95093 -2.80572,-1.50152 -3.78989,-2.97777 -0.26954,-0.40432 -0.32409,-0.9189 -0.54141,-1.35353 -0.46396,-0.92792 -1.16028,-1.77915 -1.62423,-2.70706 -1.00497,-2.00994 -2.20482,-5.6741 -2.70707,-7.85048 -0.51222,-2.21966 -0.12903,-1.93545 -0.2707,-4.06059 -0.15235,-2.2852 -0.64181,-4.45858 -0.54141,-6.76765 0.19249,-4.42733 0.64069,-9.09543 0.2707,-13.53531 -0.35507,-4.26086 -1.62627,-8.42452 -1.89494,-12.72319 -0.17409,-2.78543 0.19883,-5.60831 0,-8.39189 -0.0973,-1.36204 -0.45058,-2.6981 -0.54141,-4.06059 -0.14088,-2.11313 0.14026,-4.13922 0.2707,-6.22624 0.18664,-2.9862 -0.26008,-3.5217 -0.54141,-7.03836 -0.59309,-7.41363 -0.10425,-14.638258 1.35353,-21.927185 0.67587,-3.379364 -0.008,-0.452096 0.27071,-3.51918 0.25134,-2.76472 0.92613,-6.183571 2.16565,-8.662596 1.60672,-3.213456 -0.0627,0.555698 1.89494,-2.707061 0.25001,-0.416683 0.2914,-0.936847 0.54141,-1.35353 1.32268,-2.204469 3.48231,-4.017573 5.14342,-5.955535 3.09126,-3.606469 -1.68441,2.551675 1.89494,-1.624236 0.64108,-0.747928 0.98492,-1.907912 1.62424,-2.707061 0.78006,-0.975079 1.60111,-1.848686 2.16565,-2.977768 0.47756,-0.955134 0.84758,-2.995503 1.89493,-3.519179 0.16142,-0.08071 0.38,0.08071 0.54142,0 1.08524,-0.54262 0.95159,-0.639834 2.16565,0.270706 z"
       id="d" />
  </g>
</svg>
